<svg width="120" height="120" viewBox="0 0 120 120" fill="none" xmlns="http://www.w3.org/2000/svg">
<path d="M119.97 30.62C120.01 26.9351 119.607 23.2588 118.77 19.67C117.185 13.12 113.46 8.12001 107.87 4.45501C105.02 2.62143 101.827 1.38642 98.485 0.82501C95.9007 0.380062 93.2867 0.12936 90.665 0.0750098C90.465 0.0600098 90.25 0.0250098 90.045 0.0100098H29.93C29.1733 0.0566764 28.415 0.10001 27.655 0.14001C23.92 0.35501 20.205 0.75501 16.69 2.14001C10.01 4.79001 5.19 9.40001 2.365 16.04C1.405 18.28 0.905 20.665 0.55 23.08C0.277514 25.0363 0.110606 27.0058 0.05 28.98C0.05 29.14 0.015 29.29 0 29.445V90.56L0.135 92.68C0.385 96.755 0.905 100.8 2.62 104.545C5.87 111.645 11.31 116.31 18.79 118.55C20.89 119.185 23.07 119.485 25.255 119.69C28.03 119.955 30.805 119.99 33.59 119.99H88.74C91.3644 119.982 93.9858 119.815 96.59 119.49C100.7 118.96 104.57 117.74 108.065 115.44C112.21 112.759 115.478 108.923 117.465 104.405C118.395 102.305 118.93 100.055 119.315 97.785C119.88 94.41 120.005 90.995 120 87.585C119.99 68.585 120 49.61 119.985 30.62H119.97ZM87.855 50.57V79.13C87.855 81.215 87.565 83.265 86.635 85.16C85.185 88.11 82.835 89.97 79.695 90.86C77.9483 91.36 76.165 91.6483 74.345 91.725C69.595 91.95 65.48 88.725 64.63 84.045C64.273 82.0243 64.5871 79.9424 65.5242 78.1169C66.4613 76.2914 67.97 74.8227 69.82 73.935C71.435 73.135 73.17 72.685 74.91 72.315C76.8 71.905 78.7 71.55 80.58 71.115C81.95 70.8 82.865 69.965 83.13 68.535C83.1945 68.2173 83.228 67.8942 83.23 67.57C83.23 58.4933 83.2267 49.4217 83.22 40.355C83.2182 40.0423 83.1745 39.7312 83.09 39.43C82.89 38.68 82.34 38.215 81.57 38.26C80.77 38.31 79.98 38.435 79.195 38.59C75.395 39.3433 71.595 40.1033 67.795 40.87L56.17 43.22L49.3 44.61L49.06 44.675C47.675 45.06 47.175 45.69 47.11 47.125C47.1033 47.335 47.1033 47.5517 47.11 47.775C47.1 60.785 47.11 73.795 47.095 86.8C47.095 88.9 46.86 90.98 46.02 92.935C44.63 96.135 42.17 98.135 38.85 99.1C37.0967 99.6067 35.305 99.8933 33.475 99.96C28.675 100.14 24.7 96.96 23.875 92.24C23.175 88.18 25.025 83.815 29.645 81.865C31.43 81.115 33.295 80.705 35.185 80.315C36.62 80.015 38.06 79.735 39.485 79.43C41.3983 79.01 42.3983 77.82 42.485 75.86V75.11L42.495 30.7C42.495 30.085 42.56 29.45 42.705 28.85C43.055 27.425 44.07 26.61 45.435 26.26C46.71 25.93 48.01 25.7 49.305 25.435C52.9717 24.6883 56.6383 23.9483 60.305 23.215L71.655 20.915L81.705 18.9C82.805 18.685 83.915 18.46 85.02 18.37C86.57 18.245 87.635 19.22 87.79 20.78C87.83 21.1467 87.85 21.5183 87.85 21.895C87.86 31.4483 87.86 41.0017 87.85 50.555L87.855 50.57Z" fill="#8A8A8A"/>
</svg>
