<svg width="370.986572" height="30.577148" viewBox="0 0 370.987 30.5771" fill="none" xmlns="http://www.w3.org/2000/svg" xmlns:xlink="http://www.w3.org/1999/xlink">
	<desc>
			Created with Pixso.
	</desc>
	<defs/>
	<path id="millymallymoe" d="M319.7 28.89Q323.2 30.57 327.51 30.57Q331.8 30.57 335.29 28.9Q335.59 28.76 335.88 28.6Q338.17 27.39 339.85 25.6Q340.91 24.48 341.72 23.14Q342.3 22.19 342.72 21.18Q343.85 18.47 343.85 15.28Q343.85 12.1 342.72 9.38Q342.3 8.37 341.72 7.43Q340.9 6.07 339.83 4.94Q338.15 3.18 335.88 1.97Q335.56 1.8 335.23 1.65Q331.77 0 327.51 0Q323.24 0 319.76 1.65Q319.44 1.81 319.12 1.97Q316.89 3.16 315.23 4.9Q314.13 6.04 313.29 7.43Q312.72 8.37 312.3 9.38Q311.17 12.1 311.17 15.28Q311.17 18.47 312.3 21.18Q312.72 22.19 313.29 23.14Q314.12 24.51 315.2 25.64Q316.87 27.4 319.12 28.6Q319.41 28.75 319.7 28.89ZM26.45 14.4L26.53 29.99L34.18 29.99L34.1 0.59L27.25 0.59L17.17 17.56L6.83 0.59L0 0.59L0 29.99L7.68 29.99L7.68 14.82L15.19 27.09L18.89 27.09L26.45 14.4ZM47.54 0.59L39.22 0.59L39.22 29.99L47.54 29.99L47.54 0.59ZM60.94 0.59L52.62 0.59L52.62 29.99L74.96 29.99L74.96 23.39L60.94 23.39L60.94 0.59ZM85.72 0.59L77.4 0.59L77.4 29.99L99.74 29.99L99.74 23.39L85.72 23.39L85.72 0.59ZM114.95 29.99L114.95 19.45L126.2 0.59L118.14 0.59L111.17 12.26L104.19 0.59L95.42 0.59L106.63 19.32L106.63 29.99L114.95 29.99ZM153.79 14.4L153.88 29.99L161.53 29.99L161.44 0.59L154.59 0.59L144.51 17.56L134.18 0.59L127.34 0.59L127.34 29.99L135.02 29.99L135.02 14.82L142.53 27.09L146.24 27.09L153.79 14.4ZM173.83 24.28L186.27 24.28L188.57 29.99L197.23 29.99L184.2 0.59L176.01 0.59L163.04 29.99L171.52 29.99L173.83 24.28ZM207.06 0.59L198.74 0.59L198.74 29.99L221.08 29.99L221.08 23.39L207.06 23.39L207.06 0.59ZM231.84 0.59L223.52 0.59L223.52 29.99L245.86 29.99L245.86 23.39L231.84 23.39L231.84 0.59ZM261.07 29.99L261.07 19.45L272.32 0.59L264.26 0.59L257.28 12.26L250.31 0.59L241.53 0.59L252.75 19.32L252.75 29.99L261.07 29.99ZM299.91 14.4L299.99 29.99L307.64 29.99L307.56 0.59L300.71 0.59L290.63 17.56L280.3 0.59L273.46 0.59L273.46 29.99L281.14 29.99L281.14 14.82L288.65 27.09L292.35 27.09L299.91 14.4ZM370.98 29.99L370.98 23.56L355.61 23.56L355.61 18.19L368.66 18.19L368.66 11.97L355.61 11.97L355.61 7.01L370.43 7.01L370.43 0.59L347.38 0.59L347.38 29.99L370.98 29.99ZM330.56 23.12Q329.15 23.69 327.51 23.69Q325.9 23.69 324.51 23.14Q323.98 22.94 323.47 22.65Q322.84 22.27 322.29 21.8Q321.3 20.92 320.61 19.68Q320.6 19.67 320.59 19.65Q319.57 17.74 319.57 15.28Q319.57 12.84 320.58 10.95Q320.6 10.93 320.61 10.91Q321.32 9.63 322.35 8.73Q322.87 8.29 323.47 7.94Q324 7.64 324.56 7.42Q325.93 6.89 327.51 6.89Q329.12 6.89 330.51 7.44Q331.04 7.65 331.54 7.94Q332.16 8.3 332.69 8.76Q333.71 9.64 334.39 10.91Q334.42 10.96 334.45 11.01Q335.45 12.88 335.45 15.28Q335.45 17.71 334.44 19.59Q334.42 19.64 334.39 19.68Q333.73 20.9 332.75 21.77Q332.2 22.26 331.54 22.65Q331.07 22.92 330.56 23.12ZM180.05 8.73L183.82 18.14L176.27 18.14L180.05 8.73Z" fill="#EDEBE8" fill-opacity="1.000000" fill-rule="evenodd"/>
</svg>
