<svg width="26" height="26" viewBox="0 0 26 26" fill="none" xmlns="http://www.w3.org/2000/svg">
<path d="M20.375 11.625C16.375 9.25 9.6875 9 5.875 10.1875C5.25 10.375 4.625 10 4.4375 9.4375C4.25 8.8125 4.625 8.1875 5.1875 8C9.625 6.6875 16.9375 6.9375 21.5625 9.6875C22.125 10 22.3125 10.75 22 11.3125C21.6875 11.75 20.9375 11.9375 20.375 11.625ZM20.25 15.125C19.9375 15.5625 19.375 15.75 18.9375 15.4375C15.5625 13.375 10.4375 12.75 6.5 14C6 14.125 5.4375 13.875 5.3125 13.375C5.1875 12.875 5.4375 12.3125 5.9375 12.1875C10.5 10.8125 16.125 11.5 20 13.875C20.375 14.0625 20.5625 14.6875 20.25 15.125ZM18.75 18.5625C18.5 18.9375 18.0625 19.0625 17.6875 18.8125C14.75 17 11.0625 16.625 6.6875 17.625C6.25 17.75 5.875 17.4375 5.75 17.0625C5.625 16.625 5.9375 16.25 6.3125 16.125C11.0625 15.0625 15.1875 15.5 18.4375 17.5C18.875 17.6875 18.9375 18.1875 18.75 18.5625ZM13 0.5C11.3585 0.5 9.73303 0.823322 8.21646 1.45151C6.69989 2.07969 5.3219 3.00043 4.16117 4.16117C1.81696 6.50537 0.5 9.68479 0.5 13C0.5 16.3152 1.81696 19.4946 4.16117 21.8388C5.3219 22.9996 6.69989 23.9203 8.21646 24.5485C9.73303 25.1767 11.3585 25.5 13 25.5C16.3152 25.5 19.4946 24.183 21.8388 21.8388C24.183 19.4946 25.5 16.3152 25.5 13C25.5 11.3585 25.1767 9.73303 24.5485 8.21646C23.9203 6.69989 22.9996 5.3219 21.8388 4.16117C20.6781 3.00043 19.3001 2.07969 17.7835 1.45151C16.267 0.823322 14.6415 0.5 13 0.5Z" fill="#EDEBE8"/>
</svg>
