<svg width="140" height="140" viewBox="0 0 140 140" fill="none" xmlns="http://www.w3.org/2000/svg">
<path d="M104.417 63.5833C85.7501 52.5 54.5418 51.3333 36.7501 56.875C33.8334 57.75 30.9167 56 30.0417 53.375C29.1667 50.4583 30.9167 47.5416 33.5417 46.6666C54.2501 40.5416 88.3751 41.7083 109.958 54.5416C112.583 56 113.458 59.5 112 62.125C110.542 64.1666 107.042 65.0416 104.417 63.5833ZM103.833 79.9166C102.375 81.9583 99.7501 82.8333 97.7084 81.375C81.9584 71.75 58.0418 68.8333 39.6667 74.6666C37.3334 75.25 34.7084 74.0833 34.1251 71.75C33.5417 69.4166 34.7084 66.7916 37.0417 66.2083C58.3334 59.7916 84.5834 63 102.667 74.0833C104.417 74.9583 105.292 77.875 103.833 79.9166ZM96.8334 95.9583C95.6668 97.7083 93.6251 98.2916 91.8751 97.125C78.1667 88.6666 60.9584 86.9166 40.5417 91.5833C38.5001 92.1666 36.7501 90.7083 36.1667 88.9583C35.5834 86.9166 37.0417 85.1666 38.7917 84.5833C60.9584 79.625 80.2084 81.6666 95.3751 91C97.4168 91.875 97.7084 94.2083 96.8334 95.9583ZM70.0001 11.6666C62.3396 11.6666 54.7542 13.1755 47.6769 16.107C40.5996 19.0385 34.1689 23.3353 28.7522 28.7521C17.8126 39.6917 11.6667 54.529 11.6667 70C11.6667 85.4709 17.8126 100.308 28.7522 111.248C34.1689 116.665 40.5996 120.961 47.6769 123.893C54.7542 126.824 62.3396 128.333 70.0001 128.333C85.471 128.333 100.308 122.187 111.248 111.248C122.188 100.308 128.333 85.4709 128.333 70C128.333 62.3395 126.825 54.7541 123.893 47.6768C120.962 40.5994 116.665 34.1688 111.248 28.7521C105.831 23.3353 99.4006 19.0385 92.3233 16.107C85.246 13.1755 77.6605 11.6666 70.0001 11.6666Z" fill="#8A8A8A"/>
</svg>
