<svg width="26" height="18" viewBox="0 0 26 18" fill="none" xmlns="http://www.w3.org/2000/svg">
<path d="M10.5 12.75L16.9875 9L10.5 5.25V12.75ZM24.95 2.9625C25.1125 3.55 25.225 4.3375 25.3 5.3375C25.3875 6.3375 25.425 7.2 25.425 7.95L25.5 9C25.5 11.7375 25.3 13.75 24.95 15.0375C24.6375 16.1625 23.9125 16.8875 22.7875 17.2C22.2 17.3625 21.125 17.475 19.475 17.55C17.85 17.6375 16.3625 17.675 14.9875 17.675L13 17.75C7.7625 17.75 4.5 17.55 3.2125 17.2C2.0875 16.8875 1.3625 16.1625 1.05 15.0375C0.8875 14.45 0.775 13.6625 0.7 12.6625C0.6125 11.6625 0.575 10.8 0.575 10.05L0.5 9C0.5 6.2625 0.7 4.25 1.05 2.9625C1.3625 1.8375 2.0875 1.1125 3.2125 0.8C3.8 0.6375 4.875 0.525 6.525 0.45C8.15 0.3625 9.6375 0.325 11.0125 0.325L13 0.25C18.2375 0.25 21.5 0.45 22.7875 0.8C23.9125 1.1125 24.6375 1.8375 24.95 2.9625Z" fill="#EDEBE8"/>
</svg>
